Coordinates
version=1
nRows=8
nColumns=63
inDegrees=yes

Units are S.I. units (second, meters, Newtons, ...)
If the header above contains a line with 'inDegrees', this indicates whether rotational values are in degrees (yes) or radians (no).

endheader
time	pelvis_tilt	pelvis_list	pelvis_rotation	pelvis_tx	pelvis_ty	pelvis_tz	hip_flexion_r	hip_adduction_r	hip_rotation_r	knee_angle_r	knee_angle_r_beta	ankle_angle_r	subtalar_angle_r	mtp_angle_r	hip_flexion_l	hip_adduction_l	hip_rotation_l	knee_angle_l	knee_angle_l_beta	ankle_angle_l	subtalar_angle_l	mtp_angle_l	L5_S1_Flex_Ext	L5_S1_Lat_Bending	L5_S1_axial_rotation	L4_L5_Flex_Ext	L4_L5_Lat_Bending	L4_L5_axial_rotation	L3_L4_Flex_Ext	L3_L4_Lat_Bending	L3_L4_axial_rotation	L2_L3_Flex_Ext	L2_L3_Lat_Bending	L2_L3_axial_rotation	L1_L2_Flex_Ext	L1_L2_Lat_Bending	L1_L2_axial_rotation	L1_T12_Flex_Ext	L1_T12_Lat_Bending	L1_T12_axial_rotation	Abs_r3	Abs_r2	Abs_r1	Abs_t1	Abs_t2	neck_flexion	neck_bending	neck_rotation	arm_flex_r	arm_add_r	arm_rot_r	elbow_flex_r	pro_sup_r	wrist_flex_r	wrist_dev_r	arm_flex_l	arm_add_l	arm_rot_l	elbow_flex_l	pro_sup_l	wrist_flex_l	wrist_dev_l
      2.65000000	      6.00628180	     -9.78187880	    106.54700521	      0.21121135	      0.82191313	      0.71200741	     10.52362343	      2.14266714	    -35.24996856	     14.41634490	      0.25161268	     25.16619704	     18.01023144	      0.00000000	     13.40202657	     -4.07019236	     28.66611401	     12.73800422	      0.22232011	     13.35731404	    -17.48484401	      0.00000000	      0.00518805	      0.91229376	     -3.07026565	      0.00963472	      1.21335070	     -3.26215725	      0.00852344	      2.21815105	     -3.26215725	      0.00592942	      2.21815105	     -2.68648244	      0.00481762	      1.86034943	     -2.49459084	      0.00296445	      1.41314303	     -2.30269923	      0.03705769	     10.32004946	    -17.07589644	      0.00000000	      0.00000000	      8.01309899	     -1.13161792	     16.85622605	     14.24138817	    -18.49040013	     64.42072430	     45.96666492	     89.29059848	    -15.16581391	      3.66392732	     -7.62883726	     -5.55446291	     15.69987961	     40.67394625	     84.57806418	     -9.73398503	     -4.09008579
      2.66666667	      5.52161313	     -9.21041543	    106.49098563	      0.21218493	      0.82391303	      0.70904103	      9.50116702	      2.06891699	    -34.99901701	     14.02754065	      0.24482677	     25.05279250	     18.03707632	      0.00000000	     12.15541365	     -4.03762610	     28.75110875	     11.93313715	      0.20827253	     12.84945474	    -17.37467218	      0.00000000	      0.03855227	      0.84955677	     -3.11337098	      0.07159542	      1.12991050	     -3.30795666	      0.06333753	      2.06561233	     -3.30795666	      0.04406139	      2.06561233	     -2.72419960	      0.03579964	      1.73241616	     -2.52961392	      0.02202877	      1.31596343	     -2.33502823	      0.27537502	      9.61035607	    -17.31563535	      0.00000000	      0.00000000	      6.01836809	     -1.20676073	     16.10102499	     14.50441853	    -17.20459688	     66.24782917	     43.42318833	     89.32999246	    -15.83951899	      4.09407474	     -7.90719298	     -5.78801697	     16.19700768	     40.15582405	     84.99442992	     -9.90026570	     -3.19829373
      2.68333333	      4.83900856	     -8.60011917	    106.37152345	      0.21386964	      0.82623001	      0.70651567	      8.51883970	      1.78791844	    -34.64604928	     13.86023960	      0.24190682	     24.97464938	     17.89491639	      0.00000000	     10.93178179	     -3.80754285	     28.65663694	     11.31559654	      0.19749442	     12.24671803	    -17.45715884	      0.00000000	      0.05123543	      0.76002572	     -3.25743679	      0.09514931	      1.01083421	     -3.46102659	      0.08417468	      1.84792653	     -3.46102659	      0.05855697	      1.84792653	     -2.85025719	      0.04757722	      1.54984445	     -2.64666739	      0.02927592	      1.17727984	     -2.44307759	      0.36596954	      8.59756294	    -18.11688620	      0.00000000	      0.00000000	      3.84554478	     -1.12352813	     16.13844091	     17.20165732	    -14.75524808	     76.99577638	     37.97403697	     89.24053715	    -24.38301254	     -0.13118816	     -8.43480692	     -6.04073442	     16.05794874	     39.83955175	     85.30185758	    -10.19396516	     -1.77502031
      2.70000000	      4.27633929	     -8.00109886	    106.39033073	      0.21517193	      0.82843202	      0.70409689	      7.54805260	      1.59547965	    -34.56035043	     13.62967172	      0.23788265	     24.85743997	     17.86805493	      0.00000000	      9.81981979	     -3.64661752	     28.68557318	     10.76332048	      0.18785538	     11.69542839	    -17.38124550	      0.00000000	      0.06460067	      0.69306636	     -3.34072006	      0.11996991	      0.92177825	     -3.54951507	      0.10613244	      1.68512154	     -3.54951507	      0.07383211	      1.68512154	     -2.92313005	      0.05998818	      1.41330091	     -2.71433505	      0.03691282	      1.07355978	     -2.50554005	      0.46143613	      7.84010523	    -18.58008276	      0.00000000	      0.00000000	      1.93938883	     -1.32740838	     15.97628913	     18.83746636	    -12.44618932	     85.43224235	     33.52186564	     89.13157195	    -29.15349050	     -1.57130901	     -8.36180355	     -6.41275068	     17.38323219	     38.91009837	     85.25153597	    -10.06520117	     -0.70283118
      2.71666667	      3.86617016	     -7.48172037	    106.62926355	      0.21592482	      0.83035843	      0.70211027	      6.73010810	      1.46452159	    -34.70168441	     13.45862834	      0.23489738	     24.71025242	     17.84646545	      0.00000000	      8.97790887	     -3.52036773	     28.93072953	     10.40104581	      0.18153249	     11.21128449	    -17.30684137	      0.00000000	      0.08131827	      0.65292793	     -3.41323652	      0.15101617	      0.86839415	     -3.62656380	      0.13359779	      1.58752897	     -3.62656380	      0.09293866	      1.58752897	     -2.98658195	      0.07551215	      1.33145064	     -2.77325467	      0.04646526	      1.01138537	     -2.55992739	      0.58084831	      7.38605134	    -18.98339753	      0.00000000	      0.00000000	      0.46656961	     -1.76346937	     15.96584213	     19.80983003	    -10.64172232	     92.03789876	     30.27662552	     89.00545958	    -31.62611634	     -1.90317451	     -7.88833208	     -6.71034037	     19.45203627	     37.59389550	     84.90763261	     -9.50678019	     -0.18294688
      2.73333333	      3.64350998	     -6.99865239	    107.02763737	      0.21590273	      0.83194819	      0.70072300	      6.03362953	      1.43300347	    -35.10209509	     13.34545029	      0.23292205	     24.55347598	     17.81732921	      0.00000000	      8.38060113	     -3.46279490	     29.33737401	     10.27845707	      0.17939292	     10.87769525	    -17.28266227	      0.00000000	      0.08983539	      0.64253629	     -3.44243056	      0.16683330	      0.85457327	     -3.65758247	      0.14759056	      1.56226274	     -3.65758247	      0.10267287	      1.56226274	     -3.01212674	      0.08342114	      1.31026001	     -2.79697483	      0.05133194	      0.99528872	     -2.58182292	      0.64168520	      7.26849906	    -19.14576604	      0.00000000	      0.00000000	     -0.39500360	     -2.27004463	     15.63580259	     19.98451396	    -10.14836464	     94.08036008	     29.30086675	     88.92005748	    -31.14869652	     -1.82374226	     -7.04270722	     -6.81014506	     21.70168030	     36.16341638	     84.81495745	     -8.27565287	      0.14997703
      2.75000000	      3.46631363	     -6.66366298	    107.29768621	      0.21566003	      0.83312417	      0.69939829	      5.51303204	      1.39871629	    -35.33646184	     13.23695081	      0.23102837	     24.47837501	     17.70502300	      0.00000000	      7.96777221	     -3.39364542	     29.50268974	     10.22896619	      0.17852914	     10.69789097	    -17.14611639	      0.00000000	      0.11618720	      0.64097183	     -3.45917451	      0.21577125	      0.85249254	     -3.67537291	      0.19088395	      1.55845891	     -3.67537291	      0.13279035	      1.55845891	     -3.02677769	      0.10789144	      1.30706976	     -2.81057929	      0.06638937	      0.99286537	     -2.59438088	      0.82991356	      7.25080155	    -19.23889086	      0.00000000	      0.00000000	     -1.02335012	     -2.73294129	     15.61010586	     19.90649374	    -10.19303142	     94.41873481	     29.31727373	     88.89788782	    -30.87278149	     -1.85820849	     -6.57610940	     -6.42716925	     22.45590305	     35.20193704	     84.88165435	     -7.87747011	      0.42863711
      2.76666667	      3.55197369	     -6.16593356	    108.02671171	      0.21504128	      0.83450102	      0.69924528	      4.88586630	      1.66019623	    -36.22461178	     12.98161023	      0.22657184	     24.13588956	     17.83557446	      0.00000000	      7.66206826	     -3.54426418	     30.31455557	     10.31654313	      0.18005765	     10.52429954	    -17.13472368	      0.00000000	      0.11083924	      0.67090393	     -3.49509285	      0.20583956	      0.89230223	     -3.71353616	      0.18209779	      1.63123582	     -3.71353616	      0.12667817	      1.63123582	     -3.05820625	      0.10292532	      1.36810730	     -2.83976294	      0.06333354	      1.03923019	     -2.62131964	      0.79171364	      7.58939947	    -19.43865793	      0.00000000	      0.00000000	     -1.00085705	     -3.28138899	     14.96693835	     19.90535819	    -10.42977663	     93.96886526	     29.46703605	     88.82276414	    -30.46970490	     -1.98043459	     -5.29755382	     -6.67408107	     25.31599308	     34.10436258	     84.69516650	     -6.12689951	     -0.28689692
